<svg id="Layer_1" data-name="Layer 1" xmlns="http://www.w3.org/2000/svg" viewBox="0 0 180.28 180.28"><defs><style>.cls-1{fill:#0b86ca;}.cls-2{fill:#fff;}</style></defs><title>Linkedin Flat Circle (Color_SVG)</title><circle class="cls-1" cx="90.14" cy="90.14" r="90.14"/><path class="cls-2" d="M638.41,128.48h15v48.16h-15V128.48Zm7.5-23.94a8.68,8.68,0,1,1-8.69,8.68,8.69,8.69,0,0,1,8.69-8.68" transform="translate(-580.19 -50.45)"/><path class="cls-2" d="M662.8,128.48h14.36v6.58h0.2c2-3.79,6.89-7.78,14.17-7.78,15.16,0,18,10,18,22.94v26.42h-15V153.23c0-5.59-.11-12.77-7.78-12.77s-9,6.08-9,12.36v23.83h-15V128.48Z" transform="translate(-580.19 -50.45)"/></svg>